<svg width="50" height="48" viewBox="0 0 50 48" fill="none" xmlns="http://www.w3.org/2000/svg">
<path fill-rule="evenodd" clip-rule="evenodd" d="M37.8421 29.1075C41.6848 29.7539 41.3275 35.0078 37.1956 37.983C37.008 39.3942 39.3548 41.9106 41.0897 42.1997C47.6198 35.892 45.9517 29.6165 37.8588 29.1075C37.8421 29.1075 37.8421 29.1075 37.8421 29.1075Z" fill="white"/>
<path fill-rule="evenodd" clip-rule="evenodd" d="M37.8588 29.1075C44.2347 30.1279 45.9696 36.0963 40.9702 41.9452C40.9535 41.962 40.7325 42.2177 40.7325 42.2344C51.6656 33.1199 41.8891 23.2585 26.2625 29.6511C22.7077 31.1137 21.2978 28.9031 21.348 26.0976C19.3418 29.1242 21.7901 33.2561 26.7715 31.1137C30.0383 29.7025 34.255 28.4945 37.8588 29.1075Z" fill="white"/>
<path fill-rule="evenodd" clip-rule="evenodd" d="M46.616 25.7749C49.9139 23.4282 46.4798 34.378 46.6328 36.4691C48.7405 32.9836 49.9653 28.8697 49.9653 24.4653C49.9653 22.6969 49.761 20.962 49.387 19.2963C48.0439 24.1248 43.9622 25.5527 37.161 23.5979C35.4439 23.1056 33.556 22.765 31.6514 22.6635C35.2074 23.7855 41.3108 29.5316 46.616 25.7749Z" fill="white"/>
<path fill-rule="evenodd" clip-rule="evenodd" d="M46.6328 36.4691C47.4489 34.8703 51.1733 23.5298 46.5647 25.0939C41.4124 26.8444 36.7368 22.9347 31.6526 22.6623C28.6594 22.5093 25.5993 22.9849 23.0829 24.4642C22.3182 24.923 21.7387 25.4834 21.348 26.0964C19.8854 29.1063 22.691 32.0982 26.2278 30.5521C41.0718 24.0902 49.608 32.6945 40.9523 41.9954C40.8842 42.0635 40.8161 42.1316 40.748 42.1997C39.0991 42.2165 38.3511 43.4233 37.7393 44.9706C41.3968 42.9812 44.4736 40.0406 46.6328 36.4691Z" fill="white"/>
<path fill-rule="evenodd" clip-rule="evenodd" d="M8.13739 38.5446C6.21603 34.4808 5.09404 29.822 3.10456 25.622C1.54047 24.5681 -0.244678 25.7248 0.0277538 28.2412C0.825932 32.6443 3.71634 36.5205 8.13739 38.5446Z" fill="white"/>
<path fill-rule="evenodd" clip-rule="evenodd" d="M11.5213 35.2288C10.5009 35.6876 4.65075 32.0492 3.10458 25.6208C3.4953 30.1781 5.09405 34.6326 8.06929 38.4765C11.0959 41.5366 15.0068 43.6455 19.4613 43.1688C20.0049 43.1007 20.6 43.1007 20.7027 42.7267C17.1157 43.4926 12.9157 39.8363 11.5213 35.2288Z" fill="white"/>
<path fill-rule="evenodd" clip-rule="evenodd" d="M19.3597 42.8629C15.3975 42.692 11.1975 40.6177 8.06927 38.4765C3.98757 35.6697 1.13181 31.9465 0.0265503 28.24C0.860575 36.266 10.2631 43.3217 19.3597 42.8629Z" fill="white"/>
<path fill-rule="evenodd" clip-rule="evenodd" d="M19.3597 42.8629C10.4841 42.692 1.0637 35.6876 0.0265503 28.24C1.59065 43.1007 20.8724 52.5378 36.1071 45.77C36.6687 45.5322 37.1956 45.2598 37.7393 44.9707C38.9127 44.0864 40.0179 43.066 40.9702 41.944C43.5548 37.3533 40.987 35.4152 37.1956 37.9818C34.2024 40.1242 29.2389 41.0765 22.4365 38.2196C20.2953 37.3187 18.5089 38.8995 20.3968 40.4648C21.8594 41.6728 21.7733 42.4375 20.7027 42.7255C20.3634 42.8282 19.9045 42.8629 19.3597 42.8629Z" fill="white"/>
<path fill-rule="evenodd" clip-rule="evenodd" d="M18.1529 2.76877C19.0538 1.10192 17.2687 -0.921013 15.229 0.456682C13.2563 1.69816 11.9132 4.52046 10.9944 7.27465C13.5956 6.11921 16.6903 5.21707 18.1529 2.76877Z" fill="white"/>
<path fill-rule="evenodd" clip-rule="evenodd" d="M13.7653 12.801C16.7919 11.3217 16.6903 6.90065 15.738 3.87402C14.0723 4.75823 12.525 5.84677 11.1306 7.08824C8.80054 10.3013 8.59741 13.5836 10.2798 15.6914C11.3337 14.5694 12.5071 13.6003 13.7653 12.801Z" fill="white"/>
<path fill-rule="evenodd" clip-rule="evenodd" d="M10.2798 15.6914C9.75286 13.4295 10.1269 10.1316 11.1306 7.08827C12.0494 4.33407 13.4773 1.79974 15.229 0.456696C15.1262 0.508075 15.0247 0.576183 14.9398 0.644291C8.0872 5.37123 5.75839 19.7564 11.4544 19.9428C14.6339 20.0455 14.0389 21.0146 12.525 22.9013C10.5021 25.4177 10.042 28.3774 10.9955 31.4709C11.0469 28.7837 12.016 25.9279 14.3113 23.3267C16.1478 21.2177 16.6401 18.6499 13.0698 18.5483C11.5715 18.497 10.6705 17.375 10.2798 15.6914Z" fill="white"/>
<path fill-rule="evenodd" clip-rule="evenodd" d="M12.3541 19.313C6.96402 19.1434 8.74916 5.40465 14.9386 0.643066C6.72623 6.32232 2.32191 16.1848 3.10456 25.6208C4.49898 34.5131 10.2977 38.6282 11.5213 35.2288C11.1473 34.0554 10.9597 32.7793 10.9943 31.4709C10.8928 28.3415 11.4532 25.6901 13.4594 23.1737C14.99 21.2858 15.5337 19.3979 12.3541 19.313Z" fill="white"/>
<path fill-rule="evenodd" clip-rule="evenodd" d="M31.0074 8.0573C32.6228 10.0802 32.0624 10.2164 29.7993 9.6895C27.8266 9.23067 24.6984 8.67027 23.2872 9.89383C25.2421 9.84245 27.2315 10.1149 29.1696 10.7267C32.2309 11.679 34.7975 10.7613 32.826 8.27835C31.33 6.40837 33.6421 6.15267 35.1727 6.44183C37.0427 6.78237 39.3548 7.70003 40.3585 8.12541C41.208 8.48268 41.8377 8.37992 42.0755 8.04057C41.5318 7.59847 40.9033 7.46225 40.2736 7.18982C39.3213 6.79909 36.6854 5.31984 34.8154 4.92911C32.9454 4.52046 29.4433 6.10129 31.0074 8.0573Z" fill="white"/>
<path fill-rule="evenodd" clip-rule="evenodd" d="M29.7993 10.183C32.0612 10.6932 33.421 10.2165 31.8234 8.19353C30.2594 6.23871 32.8092 5.18363 34.6792 5.59228C36.5504 5.99974 39.338 7.30932 40.2904 7.71797C40.9201 7.97367 41.7015 8.38113 42.0755 8.04178C42.3145 7.70124 42.1615 7.10619 41.4303 6.45976C37.4167 3.14278 32.2656 1.17123 26.6544 1.17123C23.6612 1.17123 20.7876 1.73283 18.1529 2.76998C17.32 3.0926 16.5206 3.46659 15.738 3.87524C10.5522 9.14585 10.4507 13.6362 13.7653 12.8022C16.6222 10.9656 19.9201 9.96314 23.2872 9.89504C25.26 9.67159 27.8278 9.7397 29.7993 10.183Z" fill="white"/>
<path fill-rule="evenodd" clip-rule="evenodd" d="M38.8804 16.609C37.7751 16.9328 37.0427 18.2412 38.0129 19.8053C38.081 19.9081 38.1491 19.9929 38.1993 20.0778C39.1863 21.3527 40.7157 22.1855 42.4507 22.1855C45.3925 22.1855 47.7906 19.8041 47.7906 16.8468C47.7906 15.6053 47.3652 14.4654 46.6507 13.5657C46.2086 14.9936 46.3448 17.9007 42.4507 16.8468C41.4637 16.5923 39.8996 16.3211 38.8804 16.609Z" fill="white"/>
<path fill-rule="evenodd" clip-rule="evenodd" d="M39.0154 17.4251C40.0359 17.136 41.7015 17.5279 42.6885 17.7991C46.5814 18.8363 47.9758 15.3162 46.6495 13.5657C45.6805 12.3242 44.1498 11.5248 42.4495 11.5248C39.5089 11.5248 37.1275 13.905 37.1275 16.8468C37.1275 17.9521 37.4513 18.9546 38.0117 19.8053C37.3498 18.718 37.9102 17.7489 39.0154 17.4251Z" fill="white"/>
<path fill-rule="evenodd" clip-rule="evenodd" d="M37.2984 8.94032C37.9102 9.19603 38.2328 9.77315 38.0464 10.1985C37.86 10.6239 37.2135 10.7601 36.6185 10.5044C36.0067 10.232 35.6829 9.67039 35.8705 9.22948C36.0569 8.8053 36.7033 8.66909 37.2984 8.94032Z" fill="white"/>
<path fill-rule="evenodd" clip-rule="evenodd" d="M18.203 13.7019C19.852 13.0387 21.5356 13.4295 21.9944 14.5515C22.4532 15.6735 21.4842 17.136 19.852 17.7812C18.2198 18.4444 16.5195 18.0704 16.0606 16.9317C15.6185 15.8109 16.5708 14.3651 18.203 13.7019Z" fill="white"/>
<path fill-rule="evenodd" clip-rule="evenodd" d="M16.4872 34.7186C17.3535 35.5179 17.6259 36.6734 17.0643 37.2696C16.5027 37.8814 15.3473 37.7117 14.4798 36.8956C13.5956 36.0963 13.3411 34.9575 13.8848 34.3458C14.4463 33.7495 15.6018 33.9025 16.4872 34.7186Z" fill="white"/>
<path fill-rule="evenodd" clip-rule="evenodd" d="M34.5777 32.4567C35.8693 31.692 37.3832 31.8784 37.9616 32.8653C38.5399 33.8511 37.9615 35.2623 36.6866 36.0282C35.395 36.7762 33.881 36.5898 33.3027 35.6028C32.7244 34.617 33.3027 33.2047 34.5777 32.4567Z" fill="white"/>
</svg>
