<svg width="24" height="24" viewBox="0 0 24 24" fill="none" xmlns="http://www.w3.org/2000/svg">
<path fill-rule="evenodd" clip-rule="evenodd" d="M13.9755 2.00024C14.0185 2.00024 14.0606 2.00386 14.1015 2.0108L14.2384 2.01164C14.4424 2.01164 14.6374 2.09464 14.7794 2.24164L19.8444 7.51865C19.9784 7.65765 20.0535 7.84465 20.0535 8.03765V17.2036C20.0714 19.7126 18.1174 21.7626 15.6044 21.8646L7.5854 21.8656H7.4764C5.02646 21.8103 3.06157 19.8289 3.00171 17.4028L3.0014 6.49064C3.0594 4.00964 5.1084 2.01164 7.5714 2.01164L13.8495 2.0108C13.8904 2.00386 13.9326 2.00024 13.9755 2.00024ZM13.2254 3.51124L7.5734 3.51164C5.9164 3.51164 4.5404 4.85364 4.5014 6.50865V17.2036C4.4644 18.9166 5.8144 20.3276 7.5104 20.3656H15.5744C17.2434 20.2966 18.5654 18.9096 18.5535 17.2096L18.5534 8.98325L16.5435 8.98425C14.7135 8.97925 13.2255 7.48725 13.2255 5.65925L13.2254 3.51124ZM13.7887 14.6083C14.2027 14.6083 14.5387 14.9443 14.5387 15.3583C14.5387 15.7723 14.2027 16.1083 13.7887 16.1083H8.3887C7.9747 16.1083 7.6387 15.7723 7.6387 15.3583C7.6387 14.9443 7.9747 14.6083 8.3887 14.6083H13.7887ZM11.7438 10.8563C12.1578 10.8563 12.4938 11.1923 12.4938 11.6063C12.4938 12.0203 12.1578 12.3563 11.7438 12.3563H8.3878C7.9738 12.3563 7.6378 12.0203 7.6378 11.6063C7.6378 11.1923 7.9738 10.8563 8.3878 10.8563H11.7438ZM14.7254 4.35224L14.7255 5.65925C14.7255 6.66325 15.5425 7.48125 16.5455 7.48425L17.7314 7.48325L14.7254 4.35224Z" fill="white"/>
</svg>
